<svg width="176" height="64" viewBox="0 0 176 64" fill="none" xmlns="http://www.w3.org/2000/svg">
<rect x="38" y="19" width="27" height="27" rx="6" fill="#001C34"/>
<path d="M38.8984 28.3037H46.5791C46.6722 28.3037 46.7526 28.3376 46.8203 28.4053C46.8838 28.4688 46.9155 28.547 46.9155 28.6401V30.043C46.9155 30.1361 46.8817 30.2144 46.814 30.2778C46.7505 30.3455 46.6722 30.3794 46.5791 30.3794H44.3066C44.2643 30.3794 44.2262 30.3963 44.1924 30.4302C44.1585 30.4598 44.1416 30.4979 44.1416 30.5444V36.6636C44.1416 36.7567 44.1077 36.835 44.04 36.8984C43.9766 36.9661 43.8983 37 43.8052 37H42.1421C42.049 37 41.9686 36.9661 41.9009 36.8984C41.8374 36.835 41.8057 36.7567 41.8057 36.6636V30.5444C41.8057 30.4979 41.7887 30.4598 41.7549 30.4302C41.721 30.3963 41.6829 30.3794 41.6406 30.3794H39.3745C39.2814 30.3794 39.201 30.3455 39.1333 30.2778C39.0698 30.2144 39.0381 30.1361 39.0381 30.043V29.3765C39.0381 29.186 38.9704 29.0231 38.835 28.8877C38.8053 28.8581 38.7757 28.8327 38.7461 28.8115C38.6615 28.7565 38.6191 28.6803 38.6191 28.583C38.6191 28.5068 38.6466 28.4412 38.7017 28.3862C38.7567 28.3312 38.8223 28.3037 38.8984 28.3037ZM53.5933 28.3037H55.2627C55.3516 28.3037 55.4299 28.3354 55.4976 28.3989C55.5653 28.4666 55.5991 28.547 55.5991 28.6401V36.6636C55.5991 36.7567 55.5653 36.835 55.4976 36.8984C55.4299 36.9661 55.3516 37 55.2627 37H53.5933C53.5002 37 53.4219 36.9661 53.3584 36.8984C53.2907 36.835 53.2568 36.7567 53.2568 36.6636V33.7881C53.2568 33.7415 53.2399 33.7035 53.2061 33.6738C53.1764 33.64 53.1383 33.623 53.0918 33.623H50.1782C50.1317 33.623 50.0915 33.64 50.0576 33.6738C50.0238 33.7035 50.0068 33.7415 50.0068 33.7881V36.6636C50.0068 36.7567 49.9751 36.835 49.9116 36.8984C49.8439 36.9661 49.7635 37 49.6704 37H48.0073C47.9142 37 47.8359 36.9661 47.7725 36.8984C47.7048 36.835 47.6709 36.7567 47.6709 36.6636V29.3701C47.6709 29.1839 47.6032 29.0231 47.4678 28.8877C47.4382 28.8581 47.4085 28.8327 47.3789 28.8115C47.2943 28.7523 47.252 28.6761 47.252 28.583C47.252 28.5068 47.2795 28.4412 47.3345 28.3862C47.3895 28.3312 47.4551 28.3037 47.5312 28.3037H49.6704C49.7635 28.3037 49.8439 28.3354 49.9116 28.3989C49.9751 28.4666 50.0068 28.547 50.0068 28.6401V31.3125C50.0068 31.359 50.0238 31.3993 50.0576 31.4331C50.0915 31.467 50.1317 31.4839 50.1782 31.4839H53.0918C53.1383 31.4839 53.1764 31.467 53.2061 31.4331C53.2399 31.3993 53.2568 31.359 53.2568 31.3125V28.6401C53.2568 28.547 53.2907 28.4688 53.3584 28.4053C53.4219 28.3376 53.5002 28.3037 53.5933 28.3037ZM63.7368 30.3794H59.6235C59.577 30.3794 59.5368 30.3963 59.5029 30.4302C59.4691 30.4598 59.4521 30.4979 59.4521 30.5444V31.4966C59.4521 31.5431 59.4691 31.5812 59.5029 31.6108C59.5368 31.6447 59.577 31.6616 59.6235 31.6616H63.5972C63.6903 31.6616 63.7686 31.6955 63.832 31.7632C63.8997 31.8267 63.9336 31.9028 63.9336 31.9917V33.312C63.9336 33.4051 63.8997 33.4834 63.832 33.5469C63.7686 33.6104 63.6903 33.6421 63.5972 33.6421H59.6235C59.577 33.6421 59.5368 33.659 59.5029 33.6929C59.4691 33.7225 59.4521 33.7606 59.4521 33.8071V34.7593C59.4521 34.8058 59.4691 34.8439 59.5029 34.8735C59.5368 34.9074 59.577 34.9243 59.6235 34.9243H63.7368C63.8299 34.9243 63.9082 34.9561 63.9717 35.0195C64.0394 35.0872 64.0732 35.1655 64.0732 35.2544V36.6699C64.0732 36.7588 64.0394 36.8371 63.9717 36.9048C63.9082 36.9683 63.8299 37 63.7368 37H57.4526C57.3595 37 57.2812 36.9683 57.2178 36.9048C57.1501 36.8413 57.1162 36.763 57.1162 36.6699V29.3765C57.1162 29.186 57.0485 29.0231 56.9131 28.8877C56.8835 28.8581 56.8538 28.8327 56.8242 28.8115C56.7396 28.7523 56.6973 28.6761 56.6973 28.583C56.6973 28.5068 56.7248 28.4412 56.7798 28.3862C56.8348 28.3312 56.9004 28.3037 56.9766 28.3037H63.7368C63.8299 28.3037 63.9082 28.3354 63.9717 28.3989C64.0394 28.4624 64.0732 28.5407 64.0732 28.6338V30.0493C64.0732 30.1382 64.0394 30.2165 63.9717 30.2842C63.9082 30.3477 63.8299 30.3794 63.7368 30.3794Z" fill="white"/>
<path d="M77.8984 28.3037H85.5791C85.6722 28.3037 85.7526 28.3376 85.8203 28.4053C85.8838 28.4688 85.9155 28.547 85.9155 28.6401V30.043C85.9155 30.1361 85.8817 30.2144 85.814 30.2778C85.7505 30.3455 85.6722 30.3794 85.5791 30.3794H83.3066C83.2643 30.3794 83.2262 30.3963 83.1924 30.4302C83.1585 30.4598 83.1416 30.4979 83.1416 30.5444V36.6636C83.1416 36.7567 83.1077 36.835 83.04 36.8984C82.9766 36.9661 82.8983 37 82.8052 37H81.1421C81.049 37 80.9686 36.9661 80.9009 36.8984C80.8374 36.835 80.8057 36.7567 80.8057 36.6636V30.5444C80.8057 30.4979 80.7887 30.4598 80.7549 30.4302C80.721 30.3963 80.6829 30.3794 80.6406 30.3794H78.3745C78.2814 30.3794 78.201 30.3455 78.1333 30.2778C78.0698 30.2144 78.0381 30.1361 78.0381 30.043V29.3765C78.0381 29.186 77.9704 29.0231 77.835 28.8877C77.8053 28.8581 77.7757 28.8327 77.7461 28.8115C77.6615 28.7565 77.6191 28.6803 77.6191 28.583C77.6191 28.5068 77.6466 28.4412 77.7017 28.3862C77.7567 28.3312 77.8223 28.3037 77.8984 28.3037ZM92.5933 28.3037H94.2627C94.3516 28.3037 94.4299 28.3354 94.4976 28.3989C94.5653 28.4666 94.5991 28.547 94.5991 28.6401V36.6636C94.5991 36.7567 94.5653 36.835 94.4976 36.8984C94.4299 36.9661 94.3516 37 94.2627 37H92.5933C92.5002 37 92.4219 36.9661 92.3584 36.8984C92.2907 36.835 92.2568 36.7567 92.2568 36.6636V33.7881C92.2568 33.7415 92.2399 33.7035 92.2061 33.6738C92.1764 33.64 92.1383 33.623 92.0918 33.623H89.1782C89.1317 33.623 89.0915 33.64 89.0576 33.6738C89.0238 33.7035 89.0068 33.7415 89.0068 33.7881V36.6636C89.0068 36.7567 88.9751 36.835 88.9116 36.8984C88.8439 36.9661 88.7635 37 88.6704 37H87.0073C86.9142 37 86.8359 36.9661 86.7725 36.8984C86.7048 36.835 86.6709 36.7567 86.6709 36.6636V29.3701C86.6709 29.1839 86.6032 29.0231 86.4678 28.8877C86.4382 28.8581 86.4085 28.8327 86.3789 28.8115C86.2943 28.7523 86.252 28.6761 86.252 28.583C86.252 28.5068 86.2795 28.4412 86.3345 28.3862C86.3895 28.3312 86.4551 28.3037 86.5312 28.3037H88.6704C88.7635 28.3037 88.8439 28.3354 88.9116 28.3989C88.9751 28.4666 89.0068 28.547 89.0068 28.6401V31.3125C89.0068 31.359 89.0238 31.3993 89.0576 31.4331C89.0915 31.467 89.1317 31.4839 89.1782 31.4839H92.0918C92.1383 31.4839 92.1764 31.467 92.2061 31.4331C92.2399 31.3993 92.2568 31.359 92.2568 31.3125V28.6401C92.2568 28.547 92.2907 28.4688 92.3584 28.4053C92.4219 28.3376 92.5002 28.3037 92.5933 28.3037ZM102.737 30.3794H98.6235C98.577 30.3794 98.5368 30.3963 98.5029 30.4302C98.4691 30.4598 98.4521 30.4979 98.4521 30.5444V31.4966C98.4521 31.5431 98.4691 31.5812 98.5029 31.6108C98.5368 31.6447 98.577 31.6616 98.6235 31.6616H102.597C102.69 31.6616 102.769 31.6955 102.832 31.7632C102.9 31.8267 102.934 31.9028 102.934 31.9917V33.312C102.934 33.4051 102.9 33.4834 102.832 33.5469C102.769 33.6104 102.69 33.6421 102.597 33.6421H98.6235C98.577 33.6421 98.5368 33.659 98.5029 33.6929C98.4691 33.7225 98.4521 33.7606 98.4521 33.8071V34.7593C98.4521 34.8058 98.4691 34.8439 98.5029 34.8735C98.5368 34.9074 98.577 34.9243 98.6235 34.9243H102.737C102.83 34.9243 102.908 34.9561 102.972 35.0195C103.039 35.0872 103.073 35.1655 103.073 35.2544V36.6699C103.073 36.7588 103.039 36.8371 102.972 36.9048C102.908 36.9683 102.83 37 102.737 37H96.4526C96.3595 37 96.2812 36.9683 96.2178 36.9048C96.1501 36.8413 96.1162 36.763 96.1162 36.6699V29.3765C96.1162 29.186 96.0485 29.0231 95.9131 28.8877C95.8835 28.8581 95.8538 28.8327 95.8242 28.8115C95.7396 28.7523 95.6973 28.6761 95.6973 28.583C95.6973 28.5068 95.7248 28.4412 95.7798 28.3862C95.8348 28.3312 95.9004 28.3037 95.9766 28.3037H102.737C102.83 28.3037 102.908 28.3354 102.972 28.3989C103.039 28.4624 103.073 28.5407 103.073 28.6338V30.0493C103.073 30.1382 103.039 30.2165 102.972 30.2842C102.908 30.3477 102.83 30.3794 102.737 30.3794ZM112.722 31.3315V30.9443C112.722 30.7878 112.667 30.6545 112.557 30.5444C112.447 30.4344 112.313 30.3794 112.157 30.3794H110.037C109.99 30.3794 109.95 30.3942 109.916 30.4238C109.882 30.4577 109.865 30.4979 109.865 30.5444V31.7378C109.865 31.7801 109.882 31.8182 109.916 31.8521C109.95 31.8859 109.99 31.9028 110.037 31.9028H112.157C112.313 31.9028 112.447 31.8478 112.557 31.7378C112.667 31.6235 112.722 31.4881 112.722 31.3315ZM107.466 28.3037H112.112C112.895 28.3037 113.562 28.5809 114.112 29.1353C114.666 29.6854 114.943 30.3519 114.943 31.1348C114.943 31.9176 114.666 32.5863 114.112 33.1406C113.562 33.6908 112.895 33.9658 112.112 33.9658H110.03C109.988 33.9701 109.95 33.987 109.916 34.0166C109.882 34.0505 109.865 34.0907 109.865 34.1372V36.6636C109.865 36.7567 109.833 36.835 109.77 36.8984C109.702 36.9661 109.622 37 109.529 37H107.942C107.849 37 107.768 36.9661 107.701 36.8984C107.637 36.835 107.605 36.7567 107.605 36.6636V29.3701C107.605 29.1839 107.538 29.0231 107.402 28.8877C107.373 28.8581 107.343 28.8327 107.313 28.8115C107.229 28.7523 107.187 28.6761 107.187 28.583C107.187 28.5068 107.214 28.4412 107.269 28.3862C107.324 28.3312 107.39 28.3037 107.466 28.3037ZM117.667 33.7183H119.171C119.243 33.7183 119.279 33.6844 119.279 33.6167C119.279 33.5998 119.275 33.5828 119.266 33.5659L118.428 31.0649H118.409C118.38 31.158 118.253 31.541 118.028 32.2139C117.779 32.9544 117.626 33.4051 117.571 33.5659C117.567 33.5828 117.565 33.5998 117.565 33.6167C117.565 33.6844 117.599 33.7183 117.667 33.7183ZM119.476 28.5068L122.662 36.7397C122.692 36.8159 122.685 36.8794 122.643 36.9302C122.601 36.9767 122.527 37 122.421 37H120.745C120.652 37 120.582 36.9831 120.536 36.9492C120.485 36.9154 120.447 36.8604 120.421 36.7842L119.971 35.5972H116.86L116.41 36.7842C116.384 36.8604 116.346 36.9154 116.295 36.9492C116.249 36.9831 116.181 37 116.092 37H114.41C114.304 37 114.23 36.9767 114.188 36.9302C114.146 36.8794 114.139 36.8159 114.169 36.7397L116.917 29.6367C116.943 29.5775 116.96 29.514 116.968 29.4463V29.3765C116.968 29.2918 116.951 29.2072 116.917 29.1226C116.917 29.1226 116.915 29.1204 116.911 29.1162C116.898 29.0824 116.882 29.0485 116.86 29.0146C116.848 28.9977 116.843 28.9893 116.848 28.9893C116.826 28.9639 116.803 28.9364 116.778 28.9067C116.786 28.9152 116.784 28.9131 116.771 28.9004L116.765 28.894C116.736 28.8644 116.704 28.839 116.67 28.8179L116.676 28.8115C116.592 28.7565 116.549 28.6825 116.549 28.5894C116.549 28.509 116.577 28.4434 116.632 28.3926C116.687 28.3376 116.752 28.3101 116.829 28.3101H119.165C119.313 28.3101 119.416 28.3757 119.476 28.5068ZM131.771 36.416C131.801 36.4456 131.832 36.471 131.866 36.4922C131.947 36.5514 131.987 36.6276 131.987 36.7207C131.987 36.7969 131.959 36.8625 131.904 36.9175C131.849 36.9725 131.784 37 131.708 37H129.645C129.556 37 129.479 36.9683 129.416 36.9048L125.728 32.4106C125.694 32.3726 125.656 32.362 125.614 32.3789C125.571 32.3958 125.55 32.4297 125.55 32.4805V36.6636C125.55 36.7567 125.519 36.835 125.455 36.8984C125.387 36.9661 125.309 37 125.22 37H123.633C123.54 37 123.462 36.9683 123.398 36.9048C123.331 36.8371 123.297 36.7588 123.297 36.6699V28.6274C123.297 28.5386 123.331 28.4624 123.398 28.3989C123.462 28.3354 123.54 28.3037 123.633 28.3037H125.22C125.313 28.3037 125.394 28.3397 125.461 28.4116L129.137 32.9565C129.171 32.9946 129.209 33.0052 129.251 32.9883C129.298 32.9671 129.321 32.9333 129.321 32.8867V28.6338C129.321 28.5449 129.353 28.4666 129.416 28.3989C129.479 28.3354 129.556 28.3037 129.645 28.3037H131.231C131.325 28.3037 131.405 28.3354 131.473 28.3989C131.536 28.4624 131.568 28.5386 131.568 28.6274V35.9272C131.568 36.1177 131.636 36.2806 131.771 36.416ZM138.899 32.9883V32.3154C138.899 31.5918 138.703 31.0734 138.309 30.7603C137.983 30.5063 137.501 30.3794 136.862 30.3794H135.688C135.641 30.3794 135.603 30.3963 135.573 30.4302C135.539 30.4598 135.522 30.4979 135.522 30.5444V34.7593C135.522 34.8016 135.539 34.8397 135.573 34.8735C135.603 34.9074 135.641 34.9243 135.688 34.9243H136.862C137.501 34.9243 137.983 34.7952 138.309 34.5371C138.703 34.2282 138.899 33.7119 138.899 32.9883ZM133.187 28.3037H136.925C138.178 28.3037 139.191 28.6528 139.966 29.3511C140.795 30.1043 141.21 31.1559 141.21 32.5059V32.7979C141.21 34.1436 140.795 35.193 139.966 35.9463C139.191 36.6488 138.178 37 136.925 37H133.663C133.569 37 133.491 36.9661 133.428 36.8984C133.36 36.835 133.326 36.7588 133.326 36.6699V29.3701C133.322 29.1839 133.254 29.0231 133.123 28.8877C133.093 28.8581 133.064 28.8327 133.034 28.8115C132.95 28.7523 132.907 28.6761 132.907 28.583C132.907 28.5068 132.935 28.4412 132.99 28.3862C133.045 28.3312 133.11 28.3037 133.187 28.3037ZM145.101 33.7183H146.605C146.677 33.7183 146.713 33.6844 146.713 33.6167C146.713 33.5998 146.709 33.5828 146.701 33.5659L145.863 31.0649H145.844C145.814 31.158 145.687 31.541 145.463 32.2139C145.213 32.9544 145.061 33.4051 145.006 33.5659C145.002 33.5828 145 33.5998 145 33.6167C145 33.6844 145.033 33.7183 145.101 33.7183ZM146.91 28.5068L150.097 36.7397C150.126 36.8159 150.12 36.8794 150.078 36.9302C150.035 36.9767 149.961 37 149.855 37H148.18C148.087 37 148.017 36.9831 147.97 36.9492C147.919 36.9154 147.881 36.8604 147.856 36.7842L147.405 35.5972H144.295L143.844 36.7842C143.819 36.8604 143.781 36.9154 143.73 36.9492C143.683 36.9831 143.616 37 143.527 37H141.845C141.739 37 141.665 36.9767 141.623 36.9302C141.58 36.8794 141.574 36.8159 141.604 36.7397L144.352 29.6367C144.377 29.5775 144.394 29.514 144.403 29.4463V29.3765C144.403 29.2918 144.386 29.2072 144.352 29.1226C144.352 29.1226 144.35 29.1204 144.346 29.1162C144.333 29.0824 144.316 29.0485 144.295 29.0146C144.282 28.9977 144.278 28.9893 144.282 28.9893C144.261 28.9639 144.238 28.9364 144.212 28.9067C144.221 28.9152 144.219 28.9131 144.206 28.9004L144.2 28.894C144.17 28.8644 144.138 28.839 144.104 28.8179L144.111 28.8115C144.026 28.7565 143.984 28.6825 143.984 28.5894C143.984 28.509 144.011 28.4434 144.066 28.3926C144.121 28.3376 144.187 28.3101 144.263 28.3101H146.599C146.747 28.3101 146.851 28.3757 146.91 28.5068Z" fill="#001C34"/>
</svg>
